<?xml version="1.0" encoding="utf-8"?>
<!-- Generator: Adobe Illustrator 23.0.3, SVG Export Plug-In . SVG Version: 6.00 Build 0)  -->
<svg version="1.1" id="Layer_1" xmlns="http://www.w3.org/2000/svg" xmlns:xlink="http://www.w3.org/1999/xlink" x="0px" y="0px"
	 viewBox="0 0 338.6 138.8" style="enable-background:new 0 0 338.6 138.8;" xml:space="preserve">
<style type="text/css">
	.st0{fill:#A8A8A8;}
</style>
<g>
	<path class="st0" d="M332.6,40.7c1.1-16-18.9-36.8-35.2-38.8c-4.4-0.5-8.8-0.9-13.2-0.9C215.2,1,146.1,1,77,1c-1.8,0-4.9,0-5.3,0
		c-3,0-6-0.1-9-0.1c-0.9,0-2.3,0-2.9,0c-8.3,0-12.3,0.4-17.9,2.6C27,9.5,16,20.1,7.6,33.7c-4.9,7.9-5.8,16.7-6.3,25.7
		C0.8,70,0.4,80.9,3.5,91.1c7.2,23.8,33.1,42.5,57.8,42.4c71.6-0.1,143.2-0.5,214.9-0.5c5.8,0,15.8-0.1,17.4-0.1
		c6.9,0,39.1-5.2,39.1-28.7c0.2-6.8,0-14.6,0-37.9L332.6,40.7z M67.4,113.2c-26,0-46.7-20.8-46.6-46.8c0.1-25.8,21-46.6,47-46.5
		C93.6,20,114.6,41,114.3,66.7C114.1,92.9,93.6,113.2,67.4,113.2z M179.7,23.9c4.4,0,6.5,1.5,8,5.6c8.9,24.2,18,48.4,27.1,72.5
		c2.7,7.1,2.6,7.1-4.9,7.2c-0.8,0-1.7,0-2.5,0c-8.8,0-8.7,0-11.8-8.5c-3.4-9.4-1.5-8.7-12.6-8.8c-5.3,0-10.7,0.2-16,0
		c-3.8-0.2-6,1.4-6.8,5.1c-0.1,0.5-0.3,0.9-0.5,1.4c-3.9,11.3-5.8,11-18.6,10.8c-2.9-0.1-3.4-1.1-2.6-3.4c1.1-3.1,2.5-7,3.7-10.2
		c8.1-21.7,16.3-43.3,24.1-65.1c1.9-5.2,4.5-6.7,9.9-6.6 M283.5,109.2c-13,0.3-13,0.3-19.1-11.5c-2.8-5.3-5.4-10.7-8.2-16
		c-1.8-3.4-11.3-5.3-14.2-2.9c-1.5,1.2-1.3,3-1.3,4.6c-0.1,6.8-0.2,13.7,0,20.5c0.1,3.9-1.6,5.2-5.4,5.3
		c-12.5,0.4-12.5,0.5-12.5-11.7c0-10.5,0-21,0-31.5c0-12,0.1-24-0.1-36c-0.1-4.4,1.4-6.4,6.1-6.2c9.3,0.2,18.6,0.1,28,0.1
		c3.9,0,7.6,0.5,11.3,1.6c9.6,2.9,16,8.7,17.6,18.9c1.7,10.6-0.5,20.1-9.9,26.4c-4.1,2.7-3.8,4.9-1.8,8.4c4.5,8,8.6,16.1,12.9,24.3
		C289.5,108.5,289.1,109,283.5,109.2z"/>
	<path class="st0" d="M83,95c-5.3-0.1-5.8-3.3-5.7-7.3c0.1-6.5,0.1-13-0.2-19.5c-0.3-6.1-3.6-10-8.7-10.5c-3.6-0.4-7.3-0.2-11,0
		c-2.8,0.2-5,1.6-6.7,3.9c-2.5,3.4-2,5.1,2.3,5.5c4,0.3,5,2.4,5,5.9c-0.1,5.8,0,11.7,0,17.5c0.1,11.2,3,14,15.3,14
		c3.9,0.3,8.6,0.1,11.5-4.5C86.2,97.6,86.7,95.1,83,95z"/>
	<path class="st0" d="M67.7,48.2c5.2,0,9.1-4,9.2-9.2c0-5.3-4.2-9.5-9.5-9.5c-5.1,0-9.1,4-9.2,9.2C58.2,44,62.4,48.3,67.7,48.2z"/>
	<path class="st0" d="M255.4,38.8c-17.8-0.5-14.5-1.3-14.8,12c0,3.1,0.1,5.6,0,8.1c-0.2,3.7,1.3,5.6,5.2,5.5
		c4.3-0.1,8.6,0.1,12.9-0.8c5.8-1.2,9.3-5.2,9.7-11.1C269,44.5,264.2,39,255.4,38.8z"/>
	<path class="st0" d="M178.1,49c-0.5,0-1.1,0-1.6-0.1c-1.6,4.9-3,9.8-4.4,14.8c-4.7,16.8-4.4,13.5,11.6,13.9c0.2,0,0.3,0,0.5,0
		c2.2-0.1,3-1.4,2.4-3.3C183.7,65.8,180.9,57.4,178.1,49z"/>
</g>
</svg>
