<?xml version="1.0" encoding="utf-8"?>
<!-- Generator: Adobe Illustrator 24.0.1, SVG Export Plug-In . SVG Version: 6.00 Build 0)  -->
<svg version="1.1" id="Layer_2_1_" xmlns="http://www.w3.org/2000/svg" xmlns:xlink="http://www.w3.org/1999/xlink" x="0px" y="0px"
	 viewBox="0 0 554.3 217.5" style="enable-background:new 0 0 554.3 217.5;" xml:space="preserve">
<g>
	<path d="M406,61.9l-27,73.3h9.4l7.9-22.4h29.3l7.9,22.4h10l-27-73.3C416.3,61.9,406,61.9,406,61.9z M399,105.4l8.7-24.6
		c1.4-4.2,3.3-10.3,3.3-10.3h0.2c0,0,1.9,6.3,3.3,10.3l8.4,24.6H399z"/>
	<path d="M484,89.8h-0.2c-3.3-5-9.2-8.7-16.7-8.7c-13.1,0-23.3,10.2-23.3,27.8c0,17,9,27.8,23.4,27.8c7.5,0,12.4-2.9,16.4-8h0.2v6.4
		h8.3V61.9h-8.3v27.8H484z M467.7,129.7c-10.1,0-15.2-8.8-15.2-20.8c0-11.9,5.1-20.9,15.2-20.9c10.9,0,16.9,8.6,16.9,20.9
		C484.5,120.9,479.5,129.7,467.7,129.7z"/>
	<path d="M522,103.9c-9.2-1.8-14.3-3-14.3-8.7c0-4.2,3.1-7.6,10.7-7.6c7.9,0,11.7,3.1,12.5,10h8.6c-1.2-10.3-7.7-16.7-20.8-16.7
		c-12.3,0-19,5.7-19,14.5c0,11.5,9.3,13.7,19.7,15.9c9.8,2,13.8,3.6,13.8,9.5c0,4.9-3.6,8.7-12.3,8.7c-7.9,0-14-2.6-15.1-11.8h-8.4
		c0.8,11.9,8.9,18.8,23.4,18.8c12.3,0,20.9-5.5,20.9-16.1C541.5,108.5,532.6,106.1,522,103.9z"/>
	<path d="M127.7,44.1L74.9,57.8l-7.9,13.4l-15.8-0.1l-38.7,37.6l38.7,37.6l15.8-0.1l7.9,13.4l52.7,13.8l14.2-51.3l-8-13.3l8-13.3
		L127.7,44.1z M68.4,73.4l40.3-10.1l-23.2,39H39.1L68.4,73.4z M68.4,143.9L39.2,115h46.4l23.2,39L68.4,143.9z M120.1,147.7l-23.2-39
		l23.2-39l11.2,39L120.1,147.7z"/>
	<path d="M247.4,82c-7,0-11.8,3-15.3,8.4h-0.4v-7h-12.4v51.6h12.6v-29.3c0-7,4.4-11.9,10.5-11.9c5.7,0,10,3.4,10,9.5v31.8H265v-33.8
		C265.3,90.1,258.1,82,247.4,82z"/>
	<path d="M200.2,113.3c0,6.9-3.9,11.7-10.3,11.7c-5.8,0-9.5-3.3-9.5-9.4V83.5h-12.6V118c0,11.3,6.4,18.7,18,18.7
		c7.3,0,11.3-2.7,14.8-7.5h0.4v6.1h12.1V83.5h-12.6v29.9H200.2z"/>
	<rect x="271.8" y="83.5" width="12.6" height="51.6"/>
	<rect x="271.8" y="67.4" width="12.6" height="10.3"/>
	<path d="M348.4,106.8c-1.7,4.8-3,11.3-3,11.3h-0.4c0,0-1.7-6.5-3.3-11.3l-8.4-23.3h-13.6l13.9,36.8c3,7.9,3.9,11.2,3.9,14
		c0,4.3-2.3,7-7.6,7h-4.9v10.8h8.1c10.5,0,14.2-4.2,18.1-15.6l18.2-52.9H356L348.4,106.8z"/>
	<path d="M308.1,120V92.6h8.1v-9h-8.1V67.4h-12.6v16.1h-7.1v9h7.1v30.3c0,9.8,7.4,12.4,14,12.4c5.5,0,6.9-0.2,6.9-0.2v-10
		c0,0-1.5,0-3.2,0C310.1,125.1,308.1,123.8,308.1,120z"/>
</g>
</svg>
