<?xml version="1.0" encoding="utf-8"?>
<!-- Generator: Adobe Illustrator 23.0.2, SVG Export Plug-In . SVG Version: 6.00 Build 0)  -->
<svg version="1.1" id="Layer_1" xmlns="http://www.w3.org/2000/svg" xmlns:xlink="http://www.w3.org/1999/xlink" x="0px" y="0px"
	 viewBox="0 0 150.1 115.5" style="enable-background:new 0 0 150.1 115.5;" xml:space="preserve">
<style type="text/css">
	.st0{fill:#FFFFFF;}
</style>
<g>
	<path class="st0" d="M2.8,115.5c4.5,0,143.5-0.2,143.5-0.2c1.8,0,3.8-1.3,3.8-4c0-26.3,0-58,0-84.3c0-7.6-4.9-9.3-13.1-9.3
		c-5.2,0-10.1,0.1-15.4,0.1c-5,0-8.7-1.5-11.8-5.2c-1.9-2.3-4.2-4.3-6.2-6.5c-2.9-3.2-6.3-5.3-10.5-6.1h-35
		c-4.3,0.6-7.6,2.7-10.5,5.9c-2.2,2.5-4.8,4.6-7,7.1c-2.9,3.4-6.4,4.5-11,4.6c-5.8,0.1-21.2,0-22.8,0c-5.5,0-6.8,6.1-6.8,8.8
		c0,4.6,0.6,64.6,0.6,81.9C0.6,112.5,0,115.5,2.8,115.5z M78.4,97C60.2,98.4,43.5,84.5,42,67.5c-1.8-20.7,13.8-36,31.3-37.1
		c18.3-1.2,35.2,14.1,35,31.8C109.5,79.5,95.6,95.7,78.4,97z M140.8,33.2c-0.3,2.7-2.2,5.1-5.4,4.6c-2.9-0.4-4.7-2.4-4.5-5.6
		c0.2-3.4,2.6-4.3,4.5-4.5C139.7,28.1,141.1,30.5,140.8,33.2z"/>
	<path class="st0" d="M75.3,38.9c-14.1,0-25.1,10.8-25.2,24.6C50,77.4,61.3,88.9,75.2,89c13.8,0.1,25-11.3,25-25.5
		C100.2,49.4,89.5,38.9,75.3,38.9z M84.1,67c-4.3-0.7-5.6,1.1-5,5.2c0.4,2.6,0.5,4-3.3,4.1c-3.7-0.1-4.4-1.1-4-4
		c0.6-3.8-0.4-6-4.9-5.2c-2.6,0.5-4.2,0.1-4.1-3.5c0-3.6,1.8-3.7,4.3-3.4c3.5,0.5,5.3-0.5,4.7-4.5c-0.3-2.4-0.6-4.7,3.5-4.7
		c3.8,0,4.1,1.8,3.7,4.5c-0.7,4.1,1.2,5.2,4.9,4.7c2.9-0.5,4,0.5,4.1,3.7C88.1,67.3,86.3,67.4,84.1,67z"/>
</g>
</svg>
