<?xml version="1.0" encoding="utf-8"?>
<!-- Generator: Adobe Illustrator 23.0.3, SVG Export Plug-In . SVG Version: 6.00 Build 0)  -->
<svg version="1.1" id="Layer_1" xmlns="http://www.w3.org/2000/svg" xmlns:xlink="http://www.w3.org/1999/xlink" x="0px" y="0px"
	 viewBox="0 0 31.9 32" style="enable-background:new 0 0 31.9 32;" xml:space="preserve">
<g>
	<path d="M18.6,17.2L18.6,17.2c0.7,0,1.3,0.5,1.4,1.1c0.1,0.4,0.1,0.8-0.1,1.1c-0.2,0.3-0.5,0.6-0.9,0.7l-3.4,0.9
		c-0.4,0.1-0.8,0.5-1,0.9c-0.2,0.4-0.1,0.9,0.2,1.3l0.4,0.5c0.3,0.4,0.7,0.6,1.2,0.6c0.1,0,0.1,0,0.2,0l5.1-0.6
		c0.3,0,0.6-0.2,0.8-0.4l5.5-5.3c0.3-0.3,0.7-0.4,1.1-0.4c0.4,0,0.8,0.2,1.1,0.5c0.6,0.6,0.6,1.6,0,2.2l-7.2,7.1
		c-0.4,0.4-0.9,0.6-1.4,0.6l-11.4,0c-0.4,0-0.8,0.2-1,0.4l-1.8,1.9l-5.5-5.5l7.1-6.1c0.3-0.3,0.7-0.4,1.1-0.5c0,0,0,0,0,0l8.5-1.1
		C18.4,17.2,18.5,17.2,18.6,17.2 M18.6,15.8c-0.1,0-0.2,0-0.4,0l-8.5,1.1c-0.7,0.1-1.4,0.4-1.9,0.8L0.4,24c-0.5,0.4-0.5,1.1-0.1,1.6
		c0,0,0,0,0.1,0.1l6,6C6.5,31.9,6.8,32,7.1,32c0.3,0,0.6-0.1,0.8-0.3l2-2.1l11.4,0c0,0,0,0,0,0c0.9,0,1.7-0.3,2.4-1l7.2-7.1
		c1.2-1.1,1.2-3,0.1-4.2c-0.6-0.6-1.4-0.9-2.1-0.9c-0.7,0-1.5,0.3-2,0.8l-5.6,5.3L16.2,23l-0.4-0.5l3.4-0.9c1.6-0.4,2.5-2,2.1-3.6
		C21,16.6,19.9,15.8,18.6,15.8L18.6,15.8z"/>
	<path d="M29.8,2l-6-1.9C23.7,0,23.6,0,23.5,0c-0.1,0-0.2,0-0.3,0.1l-6,1.9c-0.3,0.1-0.4,0.4-0.4,0.7v4c0,2.1,0.6,4,1.9,5.7
		c1.2,1.7,2.8,2.7,4.6,3.2c0.1,0,0.1,0,0.2,0c0.1,0,0.1,0,0.2,0c1.8-0.5,3.3-1.6,4.6-3.2c1.3-1.7,1.9-3.6,1.9-5.7v-4
		C30.2,2.4,30.1,2.1,29.8,2z M26.9,5.8l-4,4c-0.1,0.1-0.2,0.1-0.2,0.1c-0.1,0-0.2,0-0.2-0.1l-1.9-1.9c-0.1-0.1-0.1-0.4,0-0.5L21,7
		c0.1-0.1,0.2-0.1,0.2-0.1c0,0,0,0,0,0c0.1,0,0.2,0,0.2,0.1l1.1,1.1L26,4.8c0.1-0.1,0.2-0.1,0.2-0.1h0c0.1,0,0.2,0,0.2,0.1l0.5,0.5
		C27,5.4,27,5.5,27,5.6S27,5.7,26.9,5.8z"/>
</g>
</svg>
